# xmcd CD database file generated by libcdaudio 0.99.6
# 
# Track frame offsets:
#       150
#       13213
#       24509
#       35890
#       52402
#       66061
#       79090
#       89008
#       110370
#       127565
#       145145
#       160876
#       172360
#       184197
#       199976
#       213114
#       225926
#       235820
#       249838
#       265943
#       278867
#       291144
#       306497
#       324065
#       339256
# 
# Disc length: 4641 seconds
# 
# Revision: 1
# Processed by: cddbd v1.5.1PL0 Copyright (c) Steve Scherf et al.
# Submitted via: libcdaudio 0.99.6
# 
DISCID=68121f19
DTITLE=The Jam - Songs that Changed Malcolm's Life
DYEAR=1900
DGENRE=
TTITLE0=Life from a Window
TTITLE1=Standards
TTITLE2=This is the Modern World
TTITLE3=Thick as Thieves
TTITLE4=Smithers-Jones
TTITLE5=Saturday's Kids
TTITLE6=Pop Poem
TTITLE7=Down in the Tube Station at Midnight
TTITLE8=Strange Town
TTITLE9=Dreamtime
TTITLE10=Mr Clean
TTITLE11=Liza Radley
TTITLE12=Pretty Green
TTITLE13=Funeral Pyre
TTITLE14=Town Called Malice
TTITLE15=Absolute Beginners
TTITLE16=Ghosts
TTITLE17=Running on the Spot
TTITLE18=Tales from the Riverbank
TTITLE19=Wastelands
TTITLE20=War
TTITLE21=Solid Bond in your Heart
TTITLE22=Move on Up
TTITLE23=Shopping
TTITLE24=Get Yourself Together
EXTD=
EXTT0=
EXTT1=
EXTT2=
EXTT3=
EXTT4=
EXTT5=
EXTT6=
EXTT7=
EXTT8=
EXTT9=
EXTT10=
EXTT11=
EXTT12=
EXTT13=
EXTT14=
EXTT15=
EXTT16=
EXTT17=
EXTT18=
EXTT19=
EXTT20=
EXTT21=
EXTT22=
EXTT23=
EXTT24=
PLAYORDER=
